<?xml version="1.0" encoding="UTF-8" standalone="no"?>
<svg
   xmlns:dc="http://purl.org/dc/elements/1.1/"
   xmlns:cc="http://creativecommons.org/ns#"
   xmlns:rdf="http://www.w3.org/1999/02/22-rdf-syntax-ns#"
   xmlns:svg="http://www.w3.org/2000/svg"
   xmlns="http://www.w3.org/2000/svg"
   xmlns:sodipodi="http://sodipodi.sourceforge.net/DTD/sodipodi-0.dtd"
   xmlns:inkscape="http://www.inkscape.org/namespaces/inkscape"
   viewBox="0 0 544.09 452.36"
   id="svg2"
   version="1.1"
   inkscape:version="0.48.5 r10040"
   width="100%"
   height="100%"
   sodipodi:docname="outline-41507.svg"
   inkscape:export-filename="/home/karmax/Bureau/1.png"
   inkscape:export-xdpi="90"
   inkscape:export-ydpi="90">
  <metadata
     id="metadata234">
    <rdf:RDF>
      <cc:Work
         rdf:about="">
        <dc:format>image/svg+xml</dc:format>
        <dc:type
           rdf:resource="http://purl.org/dc/dcmitype/StillImage" />
        <dc:title></dc:title>
      </cc:Work>
    </rdf:RDF>
  </metadata>
  <defs
     id="defs232" />
  <sodipodi:namedview
     pagecolor="#ffffff"
     bordercolor="#666666"
     borderopacity="1"
     objecttolerance="10"
     gridtolerance="10"
     guidetolerance="10"
     inkscape:pageopacity="0"
     inkscape:pageshadow="2"
     inkscape:window-width="1920"
     inkscape:window-height="1031"
     id="namedview230"
     showgrid="false"
     inkscape:zoom="1.7940591"
     inkscape:cx="14.270761"
     inkscape:cy="177.18514"
     inkscape:window-x="0"
     inkscape:window-y="0"
     inkscape:window-maximized="1"
     inkscape:current-layer="g3333" />
  <g
     id="g3333"
     transform="translate(554.05088,-584.39515)">
    <g
       transform="translate(-793.86443,512.01041)"
       id="g3327">
      <path
         style="fill-rule:evenodd"
         inkscape:connector-curvature="0"
         d="m 769.54443,256.41071 c -2.1756,-0.7966 -4.9881,-2.41834 -6.25002,-3.60385 -4.23778,-3.98116 -2.16006,-5.27151 2.80053,-1.73925 1.91521,1.36372 3.62742,1.8379 5.0296,1.39286 1.31709,-0.41801 1.89022,-0.29337 1.50643,0.32761 -0.77041,1.24652 1.6086,2.21192 5.45082,2.21192 1.9273,0 2.91821,0.50934 2.91821,1.5 0,1.9504 -6.01305,1.90353 -11.45559,-0.0893 h 2e-5 z"
         id="path26"
         transform="matrix(1.23569,0,0,1.23569,-447.79855,-7.76846)" />
      <path
         style="fill:#ffcc00;fill-rule:evenodd"
         inkscape:connector-curvature="0"
         d="M 584.22455,176.98798 C 583.55106,175.90952 583,174.79603 583,174.51357 c 0,-0.88003 3.32889,-0.41963 7.5,1.03727 l 4,1.39714 -3.68207,-0.50656 c -2.63965,-0.36315 -3.92086,-0.0799 -4.52544,1.00042 -0.71926,1.28527 -1.02353,1.21848 -2.06792,-0.45386 h -2e-5 z"
         id="path90"
         transform="matrix(0.42142,0,0,0.42142,237.34501,243.24137)" />
      <path
         style="fill-rule:evenodd"
         inkscape:connector-curvature="0"
         d="m 786.61133,255.7626 c -2.41139,-3.08116 -2.81942,-3.22321 -8.45603,-2.94386 -6.59345,0.32676 -7.61089,-0.13952 -17.83426,-8.17359 -3.87097,-3.04203 -5.97789,-5.3758 -5.64243,-6.25 0.65604,-1.70959 0.35185,-1.72553 4.25849,0.22336 2.43779,1.2161 4.52709,1.44121 8.40364,0.90536 12.65044,-1.74863 15.31516,-0.49969 20.40153,9.56223 4.77313,9.44223 4.10773,13.3703 -1.13095,6.67651 z"
         id="path212"
         transform="matrix(1.23569,0,0,1.23569,-447.79855,-7.76846)"
         sodipodi:nodetypes="csssssscc" />
    </g>
    <path
       style="fill-rule:evenodd"
       d="m -206.13388,1467.186 c -46.3678,6.9275 -61.88372,-43.2698 -74.159,-76.8978 -14.957,-3.9979 -58.81241,-16.6513 -32.31341,11.4689 43.1035,2.0258 48.56983,78.8682 -3.92725,64.3632 -35.99346,8.4424 -85.01363,-9.6187 -60.75625,-53.657 9.5742,-19.8101 -33.21009,-54.9296 -17.67893,-20.0959 5.5116,49.6526 -63.36718,27.1465 -87.72856,55.4098 -32.71758,16.3185 -68.88932,16.7133 -105.9137,14.8995 -16.03803,-1.9375 -34.42148,3.7812 -49.26502,-1.9729 -15.74726,-8.1967 -27.80465,-31.6592 -31.62563,-18.0344 -16.0192,-20.0019 -14.75493,5.9293 -29.8709,-16.8203 -30.4475,-23.6905 -28.19768,-62.8988 -25.35075,-97.4524 3.06791,-31.2826 8.29591,-60.3709 32.40392,-70.9749 17.17359,-18.0859 41.90626,-15.9026 63.70999,-18.1603 16.74998,2.2228 43.42643,23.6714 26.7155,-4.3239 2.43923,-16.0432 -7.77814,-9.5948 -1.18094,-33.3836 -4.2851,-12.4299 12.49659,-32.2825 13.26938,-41.0894 33.44594,-20.494 41.87695,-54.088 49.65283,-90.6195 13.07604,-32.7073 33.9879,-62.7364 64.32826,-81.56776 33.10819,-19.13949 32.14335,-58.95933 47.4134,-89.35686 5.61612,-19.8786 40.5978,-28.372 26.80054,-51.26231 -15.4414,-22.99615 7.16172,-37.26089 11.34469,-59.49268 38.39612,-22.09972 1.08475,-66.03213 -0.31861,-99.59359 -2.54415,-23.09151 -1.29443,-61.68775 18.27434,-73.71711 41.52158,1.89532 65.90516,41.67015 88.15723,71.43965 24.84323,-0.7755 50.23652,-2.06897 75.35176,-0.38944 21.27102,-26.87228 46.79078,-55.76134 80.95237,-64.48512 35.368205,-2.98116 15.78652,56.41014 9.82101,78.04293 -11.67035,28.09242 -33.10181,58.45333 -26.00997,89.17908 22.22742,26.06488 -6.6486,28.12188 15.7315,54.40856 -18.72668,21.19033 -6.00141,31.83996 7.30496,33.29198 -14.86935,-4.53096 -42.78698,8.96863 -12.21397,7.8778 49.350835,9.45541 -58.4835,-2.3365 -11.89923,14.37084 20.16262,2.80014 37.72768,17.00017 5.86324,4.29758 -25.47886,-13.04951 -28.87609,7.20521 -4.55506,15.87684 14.37992,5.28984 36.65269,31.75202 10.92185,10.86113 -22.20507,-22.83704 -29.99735,-11.74273 -29.70533,11.85676 -8.82265,19.72064 12.23925,61.73052 4.55822,83.01182 -11.25996,-22.4861 1.90003,32.4091 -16.50009,26.713 -7.1156,39.4767 -36.25828,69.0487 -44.82292,107.2659 -1.86258,58.8741 -7.59543,117.5508 -12.74379,176.2035 32.60988,-10.594 62.95865,55.9852 20.46124,58.1107 -5.6476,19.3618 55.87661,-2.9628 51.63356,34.35 10.28365,31.9051 -22.02269,41.3561 -46.13048,40.0477 z m -132.9824,-15.6493 c -1.13307,-29.1716 7.7759,30.935 7.89444,-4.2209 0.19586,-33.7812 3.74519,-7.929 4.46466,10.0506 5.61452,-26.577 2.09414,-6.103 9.51923,4.5948 13.99502,-6.0729 4.41323,-54.471 11.12455,-15.9515 -1.53301,23.1183 5.81305,11.1716 8.15039,-2.9852 -2.11058,40.0477 24.02617,-12.5041 1.74265,-23.5544 -4.75765,-16.9914 -47.2136,-5.1403 -27.62646,-17.9777 -14.53052,-32.6719 -11.58248,-70.2392 -21.5266,-104.5475 -6.69192,-21.3575 1.37405,-75.2681 -24.17407,-76.4444 -3.77867,25.0512 -13.84859,-14.9688 -24.19247,4.0827 -9.53238,-8.555 -32.38192,-27.7919 -18.97529,0.225 20.5154,59.4385 25.32425,122.8258 45.30829,182.2942 27.85836,-8.6203 -19.82659,19.2901 -4.92879,39.022 4.7791,17.1746 14.30095,12.784 11.42255,-2.2132 10.5965,43.8316 4.96293,-50.9874 8.80614,-3.8297 -3.53073,9.9692 17.22192,37.6639 12.99078,11.4552 z m 125.70536,7.9023 c 4.51084,-14.6729 3.67153,-21.7892 8.20953,-8.2259 0.28111,-18.1703 -0.95415,-42.2325 3.97891,-11.1848 -6.07096,24.922 10.13059,21.2874 11.2661,3.0141 3.06931,35.36 3.96223,-39.2373 7.07345,-2.6627 -1.28082,20.9181 0.57922,17.9833 6.55553,1.5471 1.53099,45.3872 23.98624,-44.9109 -15.74423,-30.9165 -12.43793,-3.7898 -49.16921,9.8251 -28.86568,-6.1419 -33.74627,-54.7785 -11.65992,-120.0822 -11.85071,-179.7842 8.01698,-30.6058 -8.02039,-18.332 -20.90513,-0.501 -14.79557,-14.0271 -33.95707,16.5927 -37.00397,25.0141 3.34677,40.2952 4.45325,80.9266 10.18787,120.9449 7.64388,16.4956 9.25259,-1.6878 13.65547,22.9835 3.68117,23.4735 13.10445,42.5896 24.3365,45.1942 -0.31587,15.1101 14.9374,26.2742 29.10636,20.7191 z m -391.05996,-2.974 c -12.86699,-4.2243 -51.74359,-42.8509 -18.52991,-19.7119 11.54087,9.0778 59.02546,29.0451 41.87773,8.9824 15.66908,12.8662 97.04045,5.9708 41.81312,-1.4401 -19.98684,-4.64 -24.56145,-13.8477 -1.06456,-5.6407 8.91658,9.726 72.21189,-5.8215 43.73898,-7.8777 -14.69759,1.4249 -46.28073,-2.9528 -14.6901,-6.3188 37.44188,-11.6795 -36.29854,1.5433 0.70852,-15.8764 27.76803,-18.5376 -42.48928,1.7325 -18.09916,-30.0676 4.60226,-14.5296 -42.07961,-1.627 -21.74633,-21.4605 22.67214,-18.1719 -35.27854,1.075 -6.00522,-13.0628 21.37451,-20.5114 -31.492,-27.4453 -45.31406,-24.5344 -23.70066,-14.5106 -46.12392,-46.0588 -79.1297,-34.6606 -36.42711,8.4725 31.13068,-20.3693 43.32353,-4.1981 13.62537,17.4686 42.10831,46.8329 59.125,28.2525 -6.50598,-18.1721 -66.21156,-33.5877 -18.65178,-23.5177 37.6535,25.4827 -21.22185,-55.624 -9.66582,-17.4781 -12.93603,-15.223 -45.01097,-23.439 -27.9794,-8.4009 -21.20633,-7.429 -60.53839,1.3508 -31.41067,6.3476 -18.81846,-4.6186 -65.8723,48.8631 -28.91201,27.2087 -21.5262,27.7147 -29.06306,67.2002 -13.84002,100.1136 18.55646,52.5618 7.74842,-55.5739 14.5351,-9.0782 -3.31641,16.1317 23.85065,60.4952 11.52584,21.2024 -3.37484,-51.2006 16.0052,29.0055 27.7724,27.9375 -7.66211,-28.811 22.93296,30.7092 43.38457,23.8804 -3.48048,0.4554 16.30675,3.4266 7.23395,-0.6006 z m 137.97029,-25.7581 c 16.15964,-8.0767 44.72554,-28.0338 9.82772,-16.113 13.3059,-11.4485 38.77704,-29.8991 42.33728,-45.9568 -42.88984,24.3563 14.39838,-21.7084 8.27368,-43.4956 -11.69618,12.5795 -31.29259,26.0407 -8.18263,2.0515 18.27566,-21.2997 10.41625,-43.7066 -18.48285,-29.1781 -19.1052,-1.8925 -34.33847,15.3676 -38.16704,27.2833 1.68539,-18.7661 15.0704,-41.3737 -11.70722,-20.714 -15.32114,12.7635 -26.20814,4.831 -38.98711,20.8321 19.25144,-34.1994 -34.53518,15.5243 -20.80146,18.1548 18.43351,-2.1314 27.8224,-3.936 4.56045,9.6938 -21.30263,27.7638 47.00633,-4.8302 34.31327,6.2496 -17.83731,8.6862 -25.80851,46.8128 2.41387,25.6613 15.92619,-22.5819 14.78151,-9.388 2.11348,5.9553 36.09575,-15.0288 -23.52379,36.477 14.30842,13.4424 10.68863,-11.7204 18.39961,-26.062 7.02611,-0.4521 -13.90732,15.9073 -16.46789,25.7411 6.86397,12.9729 21.04637,-8.4677 -30.71785,36.7135 4.2901,13.6126 z m 35.66511,-13.2356 c -3.06499,-6.6213 -7.77538,10.2845 0,0 z m 7.75947,-3.4873 c -0.64357,-17.4117 -9.47085,14.9882 0,0 z m 16.21264,0.6431 c 16.97883,-17.174 -11.16013,-47.6405 -17.67137,-15.8572 13.53456,-3.7946 3.50505,34.4326 11.32877,4.9351 3.4127,-2.6932 -3.44827,23.5875 6.34262,10.9221 z m 191.49778,-38.0644 c -2.42014,-23.7497 7.73472,24.4179 4.12186,-7.7178 -4.18824,-34.5839 8.25033,42.6122 8.59318,0.1272 7.44878,32.1216 -1.61332,-41.8052 -28.8289,-24.4914 -0.15144,6.3383 12.63752,65.5798 16.11386,32.082 z m -72.90732,-2.1288 c 3.56954,-25.7857 -8.78612,-46.1752 -34.73201,-30.5818 -7.95704,16.4584 -5.20417,39.6193 17.68534,33.2924 3.73155,-1.4405 18.92452,5.1737 17.04667,-2.7106 z m -100.31157,-12.6696 c -1.67309,-18.7065 -8.79675,-48.5151 -14.80818,-13.1541 -6.53448,12.6392 11.87105,3.7505 1.75575,19.3821 4.24463,2.4134 17.15116,3.0019 13.05243,-6.228 z m 72.76729,-35.5349 c 34.23687,-27.6985 14.14307,-73.3062 14.9312,-110.1676 -0.65712,-21.9026 -3.73724,-30.2003 -14.58503,-5.4588 -34.66376,26.2461 -26.46911,68.9599 -18.32466,105.7255 2.10708,15.9203 3.45742,28.8943 17.97849,9.9009 z m 23.03658,-2.8076 c -3.81982,-23.2926 -21.0574,22.0971 0,5.6531 0,-1.8844 0,-3.7687 0,-5.6531 z m -242.3948,-9.5794 c 28.12477,-18.3163 53.14731,-18.7772 87.57832,-30.5304 -4.904,11.2066 59.466,10.8643 36.264,-20.5627 -10.47214,-43.3064 -27.63351,-85.591 -32.98624,-129.8116 6.75328,-30.635 -16.03908,-71.0053 -5.38052,-95.8896 0.88639,34.5657 22.98247,66.1947 15.11441,100.1957 1.44526,27.0452 20.12953,81.8639 44.09207,73.0151 18.54267,5.8747 42.90387,12.1524 34.47675,-18.5909 8.09232,-31.2106 -13.54693,-77.2695 -26.41828,-91.7624 -12.80736,-17.6359 9.48356,-57.301 -0.20983,-63.4577 10.06154,-27.3302 2.4904,-65.65337 -6.19445,-77.86503 -5.23344,-31.62601 47.26253,-68.24492 4.16375,-84.90034 -12.39961,-11.23949 28.97108,42.85069 1.56906,14.02463 -3.91529,10.59774 -13.47937,-21.55681 -24.85295,0.34166 -33.64573,31.84105 -16.61626,88.17299 -52.38577,117.81188 9.23392,-17.29202 21.69254,-42.82157 -3.00465,-16.15494 -27.74607,22.68604 -56.15276,46.79964 -65.89388,82.98634 -13.87307,33.7985 -15.7369,71.8983 -1.14288,105.787 8.05666,30.6276 35.9478,57.4332 36.93605,88.0836 -15.71783,-39.6851 -44.70806,-73.425 -53.91395,-115.9725 -4.56914,-21.7742 -39.44224,16.5044 -29.12082,19.2959 -17.91293,8.4627 -17.65635,52.0724 -12.96636,50.4162 6.70181,31.27 11.10631,65.5373 28.19909,93.5985 6.7013,10.2972 18.57758,6.5653 26.07708,-0.058 z m 206.17824,-97.7848 c 18.8678,-16.4909 27.88933,-61.2092 35.9356,-68.8411 1.98076,23.4316 -11.40199,80.6786 10.5558,83.2362 8.53102,-15.9887 18.81928,-18.962 32.3737,-15.2396 29.39493,-21.8991 15.31018,-60.4705 28.1304,-90.8796 14.18744,-31.4105 24.38792,-64.0468 27.97021,-98.4622 4.31483,-14.4866 3.20503,-34.1903 9.4273,-19.5233 -1.91156,-24.57835 -0.47932,-61.9557 2.04572,-79.7394 -12.65928,11.02875 -30.31117,43.57532 -13.91589,8.29081 15.64424,-8.63384 13.19169,-26.18886 4.71267,-26.95477 -17.24451,23.35804 -46.75914,30.34496 -66.9916,7.10106 -26.03921,8.73386 -45.87218,17.7268 -27.45101,45.25473 -4.00276,-19.32313 -20.99127,-24.71761 -29.27967,-17.08237 22.80119,-2.17969 0.66773,-29.47204 3.54841,-10.51135 -13.69015,-22.10578 -47.62627,25.17613 -51.49247,14.86265 11.415,-11.50779 59.70696,-26.23631 25.68901,-39.07489 -21.01945,-0.0607 -48.34195,25.96055 -42.73216,37.8598 8.89213,10.5957 4.45136,47.51793 7.77935,68.91363 -3.43965,24.5218 17.92042,-27.50692 5.6019,8.5919 -12.75611,35.4481 -13.69384,49.7479 -4.21831,80.3396 10.60007,15.0483 15.23575,61.8749 35.92836,38.1434 -13.70207,25.2709 -14.63304,72.7782 -5.92881,90.1043 3.76569,-5.7114 8.05755,-11.0427 12.31149,-16.3895 z m 131.52414,-123.9013 c 4.16283,-31.477 28.99865,-59.4504 27.06216,-80.7971 -9.46393,-25.25575 13.4419,6.492 2.80779,-19.60062 -12.77545,-24.74917 2.48332,-63.39478 -5.91442,-80.85743 -9.81501,25.52916 -2.72932,73.8479 -3.06241,86.82876 -2.46715,23.75339 -7.927,41.42119 -11.08039,27.27189 -0.37247,16.2499 -21.71808,93.9071 -15.73559,76.8552 l 3.15811,-4.726 2.76479,-4.9746 z m -74.33722,-175.22217 c 36.33186,-18.82295 -43.34401,-4.94826 -35.36288,6.3417 12.16913,15.18279 21.14849,-2.66693 35.36288,-6.3417 z m 55.0472,4.57856 c 9.95341,-16.48311 -41.1596,7.28169 -4.44737,2.75266 z m -136.73858,-11.25778 c 36.61948,-8.80889 -22.83642,-29.70887 -15.56693,5.78626 5.52119,-0.3938 10.45579,-3.96318 15.56693,-5.78626 z m 52.55913,2.51672 c 14.96319,-3.98933 54.30565,-17.13527 15.46672,-14.70197 -15.97598,-5.32886 -51.61464,11.79622 -22.4304,17.42854 l 6.96363,-2.72658 z m 84.48801,-3.17716 c -2.99744,-10.29796 -36.26181,-47.72064 -40.06487,-24.05881 -13.39545,12.72356 29.88599,8.50937 -0.88514,11.07283 -1.22339,17.36906 23.54156,5.27091 13.5968,15.3316 8.66935,2.53152 19.2567,1.68512 27.35321,-2.34562 z m 18.78979,-3.70491 c 24.41254,-26.40096 -30.77146,11.69138 -4.08164,3.49178 l 4.08169,-3.4918 z m -127.13174,-11.58949 c 7.50882,7.73346 50.14771,2.21242 52.47745,-7.24226 -19.73158,-4.23744 -54.71294,-4.25113 -68.0506,5.01623 5.05408,2.01036 14.60018,15.0237 15.57315,2.22603 z m 145.27762,3.60428 c -2.56635,-7.12989 -7.69594,10.8763 0,0 z m -34.27341,-2.20628 c -6.65529,-8.50501 35.30915,-3.71389 4.89306,-7.97757 -18.79246,-5.56447 -11.92032,15.2645 -4.89306,7.97757 z m 45.08625,-5.76683 c -9.20048,-10.19468 -21.16775,9.9949 0,0 z m -156.40393,-6.96868 c 31.39152,-0.074 59.71451,-3.27019 36.84992,-23.41543 30.84999,26.19182 8.61435,-41.75954 -15.86586,-32.88306 2.81088,11.20404 -32.21488,-10.17313 -26.55705,0.16421 -14.34317,-18.00565 -23.3995,-15.49975 -15.61599,8.89417 -19.23989,-10.35201 -11.14995,71.41401 21.18898,47.24011 z m 164.7047,-1.34734 c 2.55033,-13.86323 -45.50932,11.34419 -4.49443,1.54821 l 4.49443,-1.54823 z m -198.03704,-4.35357 c -0.81422,-15.63694 -11.75639,-76.30427 1.86866,-55.81799 -0.63823,-41.35705 32.10283,7.32389 35.00098,-3.99986 -8.36129,-16.6722 28.33685,9.9011 39.0744,10.71462 21.18032,11.72057 13.21924,39.44091 17.34886,51.82887 20.28613,-18.33556 46.59202,3.92744 71.96483,-3.48026 -8.04812,-25.05834 -34.06626,-79.06055 10.9343,-80.89101 22.1664,-11.40369 -4.52215,40.17166 -16.98087,23.3714 -5.16951,46.37375 29.13084,-28.21519 45.37912,-6.82126 12.46448,-6.21438 -4.23347,-31.77707 -9.85619,-50.47211 -14.84386,-28.25268 -43.76021,-50.95762 -22.35185,-74.66972 5.6062,-15.1714 25.77901,-21.60822 6.56743,1.68099 -16.40488,19.30348 10.61427,42.44224 1.45336,26.9098 -11.79966,-2.61873 35.92805,-51.98591 20.68731,-46.01839 -20.66276,17.53861 27.90664,-45.76936 14.75407,-19.09739 27.57987,-18.78882 -21.11355,24.8519 5.42498,9.97353 -4.89832,10.8312 -11.98425,24.8732 -5.57409,22.37223 -6.4452,9.96155 -29.73706,27.23734 -3.5073,15.21019 -18.72073,12.34528 4.40977,32.43852 -22.75101,29.62651 -8.29505,14.05373 24.99364,47.48157 19.58716,12.95006 14.01872,-30.15135 34.49549,-60.48344 30.40902,-95.83833 -5.82466,-35.17206 -54.10122,14.99649 -68.16232,29.16548 -15.21625,43.24853 -64.33667,7.09127 -96.32622,25.73854 -18.63916,7.12902 -21.28471,-43.04415 -43.27644,-51.54151 -20.49763,-29.68364 -64.11928,-19.07158 -52.50928,20.71266 -0.97772,33.04319 16.40508,57.35955 17.96597,88.60951 14.87594,20.30645 38.2069,-30.48459 14.99529,-21.32961 -7.42275,1.7369 -20.76403,7.80068 -4.18363,-10.41547 0.17076,-0.92345 -22.96444,-27.60294 -11.30233,-16.67124 2.1126,-3.37274 14.53617,-7.19533 -0.76183,-20.60039 7.85123,1.07074 -22.21515,-33.21985 2.41814,-11.0662 -5.26591,-15.16497 -23.05273,-45.12185 -0.33634,-17.8624 14.87337,8.62232 37.80959,40.09711 8.63331,13.65401 -0.52551,13.76602 39.71174,41.84942 6.99274,21.89474 5.63406,13.04275 3.43863,10.00147 18.84588,23.74484 -6.88349,0.29404 -3.41831,24.49994 8.08879,1.76135 7.80881,-23.18446 -13.90646,-29.28975 -15.99222,-54.81956 21.1986,17.03038 24.65981,14.45472 31.17498,37.99957 4.93901,23.52201 -33.11351,39.47258 -41.45465,64.02271 -6.55648,16.95194 -9.51815,40.03538 -12.11764,7.94868 -24.12476,3.47862 -25.08481,30.3306 -35.50504,44.65109 -20.09453,18.10999 26.53939,70.61886 33.37964,56.87132 z m 196.32684,-3.29341 c 47.38143,-11.16495 5.35695,-86.4152 -24.81036,-40.61321 -10.05265,18.07947 -4.50672,55.74577 24.81036,40.61321 z"
       id="path228"
       inkscape:connector-curvature="0"
       sodipodi:nodetypes="ccccccccccccccccccccccccccccccccccccccccccccccccccccccccccccccccccccccccccccccccccccccccccccccccccccccccccccccccccccccccccccccccccccccccccccccccccccccccccccccccccccccccccccccccccccccccccccccccccccccccccccccccccccccccccccccccccccccccccccccccccccccccccccccccccccccccccccccccccccccccccccccccccccccccccccc" />
    <path
       style="fill:#ff6600"
       d="m -386.37615,872.20474 c -3.3677,3.10803 2.62766,7.35498 3.54229,10.64444 0.43577,1.2532 5.88079,8.64542 3.52021,6.48056 -1.65016,-2.11954 -4.3718,-2.24505 -6.375,-1.53125 -5.07702,-3.14584 -9.88645,-11.53389 -16.84375,-8.0625 -5.89472,4.02818 -9.01791,10.97886 -14.0625,16 -18.44978,26.80963 -16.09412,61.77839 -30.09375,90.4375 -2.12769,3.93826 -4.60639,7.7005 -7.53125,11.09375 2.35644,-6.15371 6.76067,-12.17926 6.625,-18.9375 -2.45603,-4.41206 -7.02011,1.05566 -9.25,2.96875 -23.68578,22.04191 -51.49069,41.67671 -66.0625,71.40621 -13.07456,29.4456 -23.08721,62.2863 -17.625,94.8438 2.98081,18.4188 9.67132,36.2181 17.5411,53.0123 8.86352,18.0887 21.01361,34.8185 26.1464,54.5189 -16.60817,-34.6918 -39.54879,-66.8588 -49.21875,-104.4375 -0.75631,-4.3351 -3.8456,-8.7855 -8.875,-7.8125 -9.92002,1.3227 -16.52944,10.378 -22.3125,17.75 -1.46692,2.6209 -3.6153,6.067 -1.8125,9 -13.39795,11.4839 -15.3131,31.1041 -13.90625,47.7188 1.57925,4.4924 3.54957,8.5904 3.98286,13.5867 6.41977,29.367 11.25388,60.4153 28.14214,85.7258 5.34626,7.3915 15.99001,5.8657 22.5625,1.1562 26.41986,-18.7065 59.36531,-22.5482 89.5,-32.4062 3.11994,7.0489 12.79003,5.6949 19.09298,5.9295 9.69966,-0.1817 22.57184,-3.9669 24.68827,-14.8358 0.4701,-7.889 -5.53994,-14.1103 -6.71875,-21.7812 -10.03573,-38.2585 -24.05703,-75.883 -29.99088,-115.087 -1.38645,-11.1316 1.47188,-22.4273 -1.07162,-33.4755 -2.61269,-18.7521 -8.92163,-39.2126 -7.25,-57 4.80072,28.8789 19.00808,56.9017 14.28125,86.7187 0.80695,22.0888 8.03578,43.9308 19.75,62.5 5.29675,7.7572 13.29183,15.5077 23.5625,14.0938 10.89215,0.7579 22.71127,7.1588 33.4375,2.2187 8.14601,-4.3843 5.02473,-15.2901 5.57549,-22.7187 0.69514,-17.3521 0.40608,-35.0835 -6.17297,-51.4175 -5.52984,-15.8122 -13.40485,-30.8036 -22.99627,-44.395 -5.35937,-13.7543 0.65851,-28.6881 2.59375,-42.6563 0.93588,-5.8361 2.22765,-12.6439 -0.75,-17.875 6.90254,-21.1771 4.89668,-45.12473 -1.53125,-66.37496 -1.95724,-6.28723 -6.88084,-11.90245 -4.875,-18.875 2.78903,-19.05803 16.32796,-34.54864 20.625,-53.0625 1.90319,-9.18047 -3.4103,-18.36113 -11.78125,-22.15625 -2.51368,-1.06259 -5.22885,-3.63602 -8.0625,-2.90625 z"
       id="path3360"
       inkscape:connector-curvature="0" />
    <path
       style="fill:#ff6600"
       d="m -175.1574,911.86099 c -5.99344,15.77891 -4.48156,33.312 -4.75686,49.93735 0.27738,18.75884 3.55638,37.77653 -1.6046,56.16636 -0.88921,3.448 -1.43076,7.1357 -3.41979,10.115 -2.80713,-4.2582 -5.44184,1.733 -5.33834,4.6083 -3.77583,22.2413 -10.25728,44.1726 -14.28666,66.2667 1.26247,4.6254 5.9117,0.3406 6.40625,-2.5312 4.40599,-10.443 5.67675,-22.053 10.96162,-32.2294 6.4742,-16.7262 17.12418,-32.5321 18.31963,-50.8019 0.21952,-3.6703 -2.02183,-6.8417 -1.84375,-10.5 2.62271,1.3712 8.94364,2.0022 7.53125,-2.5937 -4.18524,-11.93697 -9.03319,-23.99494 -8.00998,-36.93728 -0.23021,-18.92873 5.10319,-38.62572 -1.77127,-56.93773 -0.72917,1.8125 -1.45833,3.625 -2.1875,5.4375 z"
       id="path3362"
       inkscape:connector-curvature="0" />
    <path
       style="fill:#ff6600"
       d="m -358.3449,629.79849 c -13.4293,0.19331 -25.04191,12.53825 -23.9866,25.99984 0.14477,24.00827 5.51977,47.47901 13.13202,70.13208 3.6891,10.39519 4.65465,21.66233 6.91708,32.24308 3.69409,7.148 14.28042,6.60429 18.8125,0.59375 5.02817,-5.8582 10.58052,-14.38129 7.1875,-22.28125 -4.19064,-5.71117 -11.98921,-0.62358 -17.4375,-0.0937 -3.63854,1.54945 -2.62735,-0.94502 -1.03125,-2.84375 1.34989,-3.95437 9.19199,-6.76907 4.14561,-10.57753 -3.13926,-4.4902 -7.99184,-9.42699 -10.11436,-13.67247 5.32245,-2.77027 9.63618,-9.75492 5.09375,-15.1875 -1.48365,-3.20647 -5.20305,-4.97497 -4.90625,-8.78125 -1.51544,-3.87378 -3.67283,-7.43795 -5.6875,-11.09375 1.68368,2.30896 7.4819,3.81136 6.09375,-0.625 -2.44635,-6.64817 -7.07183,-15.57758 -8.4375,-20.84375 8.46745,9.48255 19.34375,16.66708 26.875,26.8125 -3.32454,-1.62896 -7.23178,-8.1517 -11.0625,-4.65625 0.25103,7.21706 7.06726,12.30202 10.84375,17.875 1.0884,1.67683 6.61525,6.36966 1.8125,3.625 -3.15989,-2.23729 -6.43465,1.36129 -4.15625,4.34375 3.3909,7.31302 10.51922,12.65867 15.375,18.0625 -3.12317,3.71016 -2.83295,12.49088 2.84375,13.15625 6.03633,-2.61987 9.54184,-9.70559 10.65625,-15.96875 2.94,-14.62222 -9.05191,-25.64211 -13.90625,-38.28125 -0.94414,-2.56268 -2.17627,-6.12188 -2.34375,-8.3125 9.74263,7.74862 22.05186,14.6134 25.14599,27.73448 4.29226,9.20748 2.41141,20.2841 -4.71269,27.57401 -12.65553,15.49554 -30.67578,27.93588 -36.35999,48.19855 -1.85738,5.02517 -3.42316,10.36253 -5.44831,15.24296 -2.19594,-4.03438 0.64354,-10.55456 -3.65625,-13.25 -7.84147,-0.62588 -14.93394,5.40587 -19.40625,11.40625 -7.95712,11.79164 -11.76651,25.70688 -19.84375,37.40625 -6.29399,12.82404 2.0604,26.84487 9.28125,37.3125 6.50805,8.17891 13.69195,17.69751 24.4375,20 5.9545,0.39722 4.97791,-6.84436 4.44678,-10.71334 -0.93578,-17.00692 -5.14905,-34.15204 -3.00928,-51.16166 1.4964,2.08143 5.61845,2.37013 5.65625,-1.1875 0.76738,-4.17913 0.54127,-12.93336 7.09375,-11.59375 9.04684,2.77007 15.19146,11.29799 24.21875,14.03125 3.87946,0.28 3.12419,-4.42576 2.9375,-6.5625 13.48658,3.41154 25.31439,11.97241 38.46875,16.34375 12.74849,6.83867 13.37131,23.0342 14.05888,35.89853 1.30509,4.56852 -1.01258,11.32144 3.12862,14.63272 4.87102,-1.26194 8.95755,-5.79441 14.46875,-5.96875 19.16756,-2.48506 38.07331,8.48752 57,3.21875 2.60793,-3.9148 -1.48739,-9.12885 -1.99261,-13.32732 -5.31168,-17.96187 -14.64409,-37.26133 -8.10114,-56.04768 4.76283,-10.36467 18.35522,-11.5476 28,-12.3125 0.45354,8.67934 -5.49324,17.13668 -12.125,22.28125 -3.053,2.31863 -6.90072,2.20614 -10.21875,0.59375 -4.81417,1.66356 -3.1392,8.67016 -2.5,12.5 0.49149,4.92931 6.59161,4.75881 9.125,1.53125 9.54937,-7.1235 16.57287,-18.05 27.90625,-22.625 3.97694,-1.5756 7.56709,1.16384 10.28125,3.78125 5.08024,-3.8646 6.94876,-10.44335 4.625,-16.34375 -6.61782,-20.26747 -14.0524,-40.73997 -26.86558,-58.02068 -7.61592,-12.37234 -19.56479,-25.67904 -15.41567,-41.32312 3.68834,-8.38385 8.56152,-17.07391 15.875,-22.75 2.03989,-1.30541 2.20349,0.0954 1.03125,1.65625 -4.95309,9.46103 -15.31889,18.57096 -11.71875,30.3125 1.75048,4.5001 2.98651,11.00247 7.96875,12.9375 4.53691,-1.34811 0.6684,-5.94268 -0.375,-8.34375 5.47948,-15.53556 19.00091,-26.92135 25.375,-41.9375 0.84713,-4.77484 -5.46889,-1.9969 -6.4375,-1.4375 4.71741,-7.70245 10.22224,-15.02698 16.34375,-21.59375 -4.42359,8.31511 1.64326,3.97803 4.78125,2.25 -2.58891,4.73748 -8.31755,8.60225 -8.40625,14.40625 2.03506,2.75892 8.10956,-2.74634 5.15822,1.92215 -1.50387,5.47556 -6.80423,11.2788 -4.59572,17.14035 0.36707,2.74252 -4.33228,5.32648 -5.82836,7.92796 -2.4328,3.64988 -7.45338,6.35647 -7.76539,11.07204 1.83494,2.47221 5.00142,0.43088 7.28125,-0.125 -5.49657,5.99039 -2.06262,15.11228 -5.0625,21.9375 -3.33076,4.74782 -12.76634,-1.15331 -14,6 -1.30936,10.82339 6.04385,21.61278 15.25,26.6875 5.43145,2.12993 9.58989,-4.22258 8.6875,-9.125 -1.59231,-9.97968 5.85653,-17.78276 9.31638,-26.55357 11.07421,-21.93818 21.94029,-45.30202 20.90237,-70.50893 0.33115,-7.46489 -2.30618,-18.16497 -11.09375,-19.21875 -13.56804,-0.12116 -24.25352,9.93529 -34.375,17.65625 -11.17358,10.12886 -23.7425,19.72178 -30.65625,33.375 -8.18368,13.01746 -25.23369,12.96012 -38.90358,11.83327 -17.17152,-1.61547 -35.66942,-3.86172 -51.72142,3.82298 -7.45895,2.75872 -11.43513,-5.40611 -14.375,-10.71875 -7.3703,-13.02318 -11.69702,-28.9654 -23.875,-38.375 -8.12556,-5.57154 -13.9017,-14.744 -24,-17.375 -3.86171,-1.29331 -8.00474,-1.95979 -12.125,-1.75 z m 51.8125,169.84375 c 9.26976,5.36486 20.57319,-1.25697 29.78125,3.40625 5.56276,4.32566 8.52358,12.55005 10.15625,18.3125 -3.64472,-4.09413 -7.11775,-8.22308 -13.1875,-6.5 -0.22434,-1.75605 -5.98959,2.31768 -8.75,0.65625 -4.1112,-5.39037 -11.52697,-7.87579 -16.03125,-13.25 -0.49462,-0.65526 -2.37452,-2.33483 -1.96875,-2.625 z"
       id="path3364"
       inkscape:connector-curvature="0"
       sodipodi:nodetypes="cccccccccccccccccccccccccccccccccccccccccccccccccccccccccccccccccccccccccccccccccccccccccccccc" />
    <path
       style="fill:#b3b3b3"
       d="m -342.12243,1229.2731 c -2.98344,-7.4168 -3.63115,-13.1048 -3.60852,-31.6892 0.0177,-14.5125 0.3266,-20.0609 1.42641,-25.6189 1.86781,-9.4391 4.73038,-19.2311 7.19723,-24.6193 1.1061,-2.4161 1.84054,-4.5634 1.63209,-4.7719 -0.20846,-0.2084 -1.67186,0.7562 -3.25202,2.1436 -8.89409,7.8091 -13.75009,3.9402 -22.05081,-17.5683 -2.86903,-7.4341 -6.40753,-15.9996 -7.86333,-19.0345 -5.82336,-12.1397 -8.63639,-26.8267 -8.00193,-41.7786 0.51025,-12.0247 1.67347,-17.17 8.84452,-39.1224 2.84609,-8.7125 4.94781,-16.0669 4.67048,-16.3431 -0.52194,-0.5197 -1.23436,0.3196 -5.87262,6.9186 -1.50983,2.1481 -2.92873,3.7207 -3.15311,3.4948 -0.22438,-0.226 -0.43859,-2.4197 -0.47601,-4.8749 -0.15499,-10.1686 -1.88526,-49.3067 -2.34922,-53.13872 -0.73945,-6.10743 -2.54853,-12.85326 -4.39907,-16.40359 -2.09351,-4.01651 -1.52009,-7.40845 2.29824,-13.59463 6.46841,-10.47966 21.49517,-21.05644 33.49001,-23.57239 5.44447,-1.14199 9.39108,-0.042 13.99809,3.9014 6.78036,5.80373 3.10198,10.54166 -17.74518,22.85666 -13.49286,7.97061 -16.74873,10.44018 -15.79622,11.98138 1.11481,1.8038 4.4409,0.65453 9.99457,-3.45344 24.44364,-18.08058 32.05059,-20.97047 38.42379,-14.59726 1.28418,1.28417 2.53951,2.33486 2.78964,2.33486 0.25013,0 0.45477,-1.2206 0.45477,-2.71245 0,-3.44837 1.04787,-4.09531 3.08741,-1.90612 4.32434,4.64162 3.58999,10.47214 -1.51696,12.04426 -1.52079,0.46816 -3.46882,1.26801 -4.32895,1.77743 -2.65079,1.56995 -0.78708,1.9657 2.85497,0.60623 6.01511,-2.24526 7.50652,-2.24848 12.04906,-0.026 4.46716,2.18558 5.48438,3.35165 7.96914,9.13529 2.57139,5.98532 4.66242,9.23146 4.95795,7.69684 0.30694,-1.5938 -3.51856,-10.43232 -5.07409,-11.7233 -1.68441,-1.39793 -1.3937,-9.61021 0.46946,-13.26231 2.94805,-5.77866 11.78897,-11.45725 25.77788,-16.55733 l 6.14435,-2.24011 4.26348,3.89659 c 16.55346,15.12893 39.59967,13.28503 57.40053,-4.59255 l 6.45457,-6.48239 1.96234,1.54357 c 6.04819,4.75751 3.54316,16.4479 -4.8113,22.45319 -2.41576,1.73648 -3.76451,3.69548 -5.91469,8.59085 -5.55538,12.64808 -4.71369,13.03 3.98637,1.80885 3.44547,-4.44391 7.74047,-9.67609 9.54444,-11.62707 3.26387,-3.52988 3.2779,-3.53567 2.867,-1.18242 -1.16299,6.66046 -2.15115,28.56937 -2.23039,49.45051 -0.0828,21.81807 -0.17967,23.35527 -1.4022,22.24887 -1.05424,-0.954 -1.47476,-0.9902 -2.13199,-0.1832 -0.87947,1.0798 -4.49409,19.3461 -6.12645,30.9597 -3.86986,27.5325 -11.109,53.2958 -23.03553,81.9807 -3.06445,7.3703 -6.12336,15.3516 -6.7976,17.7362 -1.47972,5.2332 -3.13309,17.1642 -4.81384,34.7376 -1.45067,15.1678 -3.30456,23.692 -6.6974,30.7949 -2.5492,5.3367 -7.41788,11.7334 -11.52886,15.1472 -2.22237,1.8455 -2.71934,1.9517 -5.51793,1.1789 -4.04653,-1.1174 -11.07084,-0.4304 -15.38326,1.5045 -4.02574,1.8063 -8.58754,6.0618 -11.48302,10.712 -1.12222,1.8023 -2.14123,3.3959 -2.26446,3.5414 -0.12323,0.1454 -1.5065,-0.3442 -3.07392,-1.0879 -3.86192,-1.8326 -6.60859,-6.7804 -7.95423,-14.3286 -1.40693,-7.8919 -1.39963,-17.1565 0.0296,-37.6624 1.32684,-19.0359 1.49655,-29.5604 0.47667,-29.5604 -1.54068,0 -4.92237,7.2837 -13.40152,28.8652 -7.53757,19.1849 -13.36807,29.7069 -21.33813,38.5077 -2.23748,2.4707 -6.13723,7.2828 -8.6661,10.6935 l -4.59795,6.2012 -0.85631,-2.1288 3e-5,0 z"
       id="path3366"
       inkscape:connector-curvature="0" />
    <path
       style="fill:#b3b3b3"
       d="m -346.2824,813.36099 c -6.65238,3.39822 -3.97853,12.52794 -2.73827,18.34014 1.51114,2.82708 -3.82265,1.44582 -4.79298,3.94111 -6.24006,6.82375 -3.73746,17.28244 -3.32733,25.6462 1.9556,10.29823 6.07448,22.13625 16.20233,26.82255 8.26477,3.47643 14.89515,-5.3995 23.21868,-3.82469 11.7709,-0.66812 24.5957,-0.15915 35.15632,-5.89406 4.40303,-2.37692 4.9258,-8.37867 2.0625,-12.15625 4.63428,2.47105 9.67903,-1.90172 8.75,-6.84375 -1.58212,-13.46925 -9.37598,-27.13541 -21.59375,-33.5625 -3.9146,-1.83442 -10.58258,-2.90218 -12.40625,2.125 -5.32341,1.91105 -10.40643,-3.03269 -15.78656,-3.46393 -3.33371,-1.21867 -7.32756,-1.97329 -10.46344,-1.59857 -4.27769,-3.42484 -8.47882,-9.22057 -14.28125,-9.53125 z"
       id="path3368"
       inkscape:connector-curvature="0" />
    <path
       style="fill:#f2f2f2"
       d="m -166.56365,817.29849 c -10.70558,1.05571 -18.85704,10.18865 -23.625,19.1875 -3.06405,8.77794 -2.86343,18.76083 -1.34375,27.8125 2.46973,8.64667 10.85593,16.77703 20.40625,14.0625 12.01355,-2.67701 26.20012,-7.56044 30.4375,-20.4375 5.22093,-16.63437 -5.75756,-37.81024 -23.4375,-40.59375 -0.81237,-0.0198 -1.62501,-0.11112 -2.4375,-0.0312 z"
       id="path3370"
       inkscape:connector-curvature="0" />
    <path
       style="fill:#f2f2f2"
       d="m -345.8449,814.23599 c -5.7472,1.96428 -3.24973,9.53834 -3.34375,14.09375 -0.19823,2.37491 2.41041,6.18909 -1.5,5.96875 -8.34142,3.9678 -6.51797,15.00084 -6.32713,22.55937 1.22127,11.30955 4.96384,24.69266 15.67088,30.40938 8.15046,3.223 15.55505,-3.98662 23.74589,-3.21554 11.90046,-1.54805 25.28545,-0.28234 35.75411,-6.90946 4.52975,-3.03444 1.98957,-9.61692 -0.125,-12.3125 3.40348,2.19752 9.54123,1.69618 9.46875,-3.375 0.4321,-12.23178 -7.07026,-23.64971 -15.6875,-31.6875 -4.29806,-3.89708 -13.03889,-7.39433 -17.21875,-1.78125 -4.72871,2.11587 -10.27492,-1.81608 -15.0541,-2.59131 -3.27574,-1.41736 -7.29182,-1.34408 -10.4459,-1.93994 -5.38289,-2.05435 -8.85739,-9.01247 -14.9375,-9.21875 z"
       id="path3372"
       inkscape:connector-curvature="0" />
    <path
       style="fill:#f2f2f2"
       d="m -192.18865,907.32974 c -9.95854,10.14313 -22.24139,21.56448 -37.6875,19.84375 -11.60773,1.73116 -21.08722,-6.31489 -29.28125,-13.40625 -11.66549,5.14977 -26.07187,8.59918 -33.1875,20.09375 -1.8236,3.22741 -1.7604,8.03227 -1.40625,10.9375 -3.28104,-3.12982 -7.72739,-5.71578 -12.40625,-5.21875 5.21304,-4.81617 -0.0918,-12.11856 -4.2095,-15.58342 -3.38481,-4.95839 -0.54121,9.39572 -4.75925,4.23967 -8.4951,-5.78345 -18.34953,1.54268 -25.45592,6.21838 -6.43213,3.94493 -12.2636,9.03198 -19.16908,12.21912 10.68669,-8.6227 24.35948,-13.7074 33.40625,-24.09375 4.10871,-7.24606 -5.10778,-13.58311 -11.375,-14.53125 -12.42318,-0.62034 -23.44499,7.35371 -32.53125,15 -6.52388,6.28828 -14.51622,15.27251 -10.28125,24.9375 5.97795,15.84877 3.95818,33.14861 5.58544,49.77723 0.80771,8.02808 -0.29246,16.42848 1.66456,24.25398 3.38539,0.7226 4.86224,-3.0071 6.8125,-5 -5.65052,19.1864 -13.63136,38.6153 -11.17815,59.122 0.099,6.7178 0.2174,13.5359 2.8344,19.6593 6.1601,16.1258 11.89497,32.6992 20.28125,47.7812 2.50744,4.1774 8.06696,8.6837 12.8125,4.8125 3.22353,-2.2691 3.60065,-1.6939 1.84375,1.9063 -5.31339,14.3258 -7.85705,29.3277 -7.34375,44.625 -0.16279,13.4683 -0.2164,27.3921 5.25,39.9375 11.5512,-15.5557 25.42363,-29.6066 32.3125,-47.9688 5.16479,-11.5006 9.60228,-23.3601 14.96875,-34.75 0.12327,21.2536 -2.61398,42.6667 -0.4375,63.8438 1.39586,6.1293 5.15403,14.6713 12.375,14.9062 4.04452,-2.0353 5.20602,-7.7581 9.1875,-10.125 6.15004,-6.4802 15.45578,-5.0425 23.4375,-5.2812 7.28236,-2.884 10.97853,-10.8958 14.875,-17.2188 5.12927,-10.6285 5.5388,-22.7841 7.65625,-34.0625 1.02618,-4.537 0.0666,-9.6902 1.3125,-14.4062 2.28109,-23.154 14.41141,-43.9427 20.77693,-66.1389 9.13837,-26.0871 11.42039,-54.1006 17.66057,-80.7049 5.10165,0.3635 3.29637,-6.90755 3.75,-10.03121 0.28845,-19.30452 0.61094,-38.78538 1.9375,-57.96875 2.20992,-2.92986 -0.96558,-8.68923 -4.34375,-5.34375 -4.54391,4.42271 -8.61552,10.26232 -12.71875,14.625 2.36304,-9.48847 13.41075,-14.03173 14.6875,-24.125 1.29029,-5.57588 -1.80794,-10.92319 -6.25,-14.15625 l -0.71501,0.69912 -0.69124,0.67588 z"
       id="path3374"
       inkscape:connector-curvature="0" />
    <path
       style="fill:#f2f2f2"
       d="m -250.5949,876.54849 c -5.9246,0.96291 -7.72524,8.30791 -9.8125,12.96875 -0.96907,2.93639 4.01022,4.8525 3.9375,5.59375 -5.1662,2.80873 -1.18715,11.17118 3.71875,12.09375 2.72199,1.60677 6.75557,0.98436 9.15625,2.03125 -1.92025,4.13858 3.14638,6.0844 6.5,5.53125 7.08789,-0.32807 15.46073,0.0542 21.15625,-4.65625 0.77285,-5.61327 -5.01569,-9.77708 -7.70084,-14.17601 -7.03118,-7.89907 -14.67656,-17.32702 -25.67416,-19.38649 -0.42575,-0.0406 -0.85558,-0.0448 -1.28125,0 z"
       id="path3376"
       inkscape:connector-curvature="0" />
    <path
       style="fill:#f2f2f2"
       d="m -220.56365,914.36099 c -5.53729,1.22665 -12.38115,2.91782 -15.25,8.0625 -0.0528,5.01974 7.12416,3.14763 10.34375,3.625 5.06557,0.58769 13.22071,-3.92552 10.6875,-9.78125 -1.31643,-1.74005 -3.72591,-2.14763 -5.78125,-1.90625 z"
       id="path3378"
       inkscape:connector-curvature="0" />
    <path
       style="fill:#f2f2f2;fill-opacity:1"
       d="m 224.59639,314.65907 c -1.67462,-0.70815 -9.80764,-6.57301 -9.85559,-7.10704 -0.0454,-0.50541 5.91793,-3.06326 9.44501,-4.05126 8.18989,-2.29412 13.31891,-2.79912 28.70585,-2.82633 11.93354,-0.0211 16.37527,0.18333 21.45179,0.98734 3.52116,0.55768 6.51118,1.12303 6.64449,1.25634 0.1333,0.13331 -0.36478,0.89329 -1.10686,1.68884 -3.97627,4.26281 -16.84894,7.76277 -30.89118,8.39904 -8.09691,0.36687 -13.69868,-0.28454 -17.15584,-1.99501 -2.48938,-1.23165 -3.18909,-1.10536 -3.18909,0.57558 0,1.42228 -0.86953,3.06145 -1.81685,3.42497 -0.40317,0.15471 -1.40745,-0.004 -2.23173,-0.35247 z"
       id="path3400"
       inkscape:connector-curvature="0"
       transform="translate(-554.0509,584.39515)" />
    <path
       style="fill:#f2f2f2;fill-opacity:1"
       d="m 241.46506,329.5406 c -8.3752,-2.92047 -7.90061,-7.36973 1.26664,-11.87467 2.5223,-1.23951 6.59263,-2.76302 9.04517,-3.38558 4.10769,-1.0427 5.49162,-1.10217 17.55795,-0.7544 7.20433,0.20764 13.69967,0.60074 14.43407,0.87355 l 1.33528,0.49601 -1.27559,1.3578 c -1.67868,1.78687 -11.05822,5.68416 -21.4612,8.91733 -4.59851,1.42919 -9.93124,3.20587 -11.85051,3.94817 -4.03056,1.55889 -5.5834,1.63125 -9.05181,0.42179 z"
       id="path3402"
       inkscape:connector-curvature="0"
       transform="translate(-554.0509,584.39515)" />
    <path
       style="fill:#f2f2f2;fill-opacity:1"
       d="m 252.76463,343.49091 c -1.85227,-0.91321 -6.28301,-5.34076 -6.28301,-6.27848 0,-1.35939 3.26978,-4.14531 6.88172,-5.86338 11.43897,-5.44111 33.76105,-9.48584 37.45276,-6.78639 1.02579,0.75008 0.98108,0.86505 -1.06555,2.73969 -1.17495,1.07621 -4.05441,2.87911 -6.3988,4.00645 -2.34438,1.12734 -5.38759,2.59088 -6.76268,3.25231 -1.37509,0.66144 -4.38502,2.43546 -6.68874,3.94228 -9.19474,6.01411 -12.87865,7.08634 -17.1357,4.98752 z"
       id="path3404"
       inkscape:connector-curvature="0"
       transform="translate(-554.0509,584.39515)" />
    <path
       style="fill:#f2f2f2;fill-opacity:1"
       d="m 184.96206,329.77172 c -0.96683,-3.60771 0.15453,-9.47719 2.41788,-12.65577 0.67673,-0.95037 2.52525,-2.40849 4.10782,-3.24026 2.50753,-1.3179 3.52225,-1.51296 7.89396,-1.51743 4.46485,-0.005 5.38436,0.17876 8.36093,1.66705 3.77993,1.88997 4.98603,3.58333 4.03651,5.66729 -0.824,1.80849 -3.16221,3.15324 -9.36993,5.3888 -2.8914,1.04127 -7.38913,2.80016 -9.99495,3.90864 -5.59206,2.37879 -6.98505,2.52491 -7.45222,0.78168 z"
       id="path3406"
       inkscape:connector-curvature="0"
       transform="translate(-554.0509,584.39515)" />
    <path
       style="fill:#f2f2f2;fill-opacity:1"
       d="m 323.20988,341.10544 c -3.63297,-0.38699 -5.19906,-1.64904 -4.24906,-3.42414 1.12415,-2.1005 4.85317,-4.49998 9.06862,-5.83532 7.51813,-2.38153 11.20274,-1.61268 11.20274,2.33763 0,1.68925 -0.39775,2.3887 -2.33704,4.10966 -3.42952,3.04344 -6.18959,3.61061 -13.68526,2.81217 l 0,0 z"
       id="path3408"
       inkscape:connector-curvature="0"
       transform="translate(-554.0509,584.39515)" />
    <path
       style="fill:#f2f2f2;fill-opacity:1"
       d="m 335.79248,312.25876 c -1.04759,-0.42149 -2.35721,-3.24165 -2.35721,-5.07605 0,-1.0022 0.53894,-2.10901 1.4384,-2.954 1.1954,-1.12302 1.97225,-1.3411 4.59851,-1.29088 3.97648,0.076 16.31934,2.28555 13.3,2.38085 -3.63779,0.11482 -10.06913,1.2684 -11.67272,2.09371 -1.14556,0.58958 -1.53284,1.20281 -1.53284,2.42716 0,2.10196 -1.7595,3.2298 -3.77414,2.41921 z"
       id="path3410"
       inkscape:connector-curvature="0"
       transform="translate(-554.0509,584.39515)" />
    <path
       style="fill:#f2f2f2;fill-opacity:1"
       d="m 345.429,325.46766 c -0.86014,-1.39174 5.02105,-6.84227 11.76427,-10.90282 2.89175,-1.74132 5.22656,-2.46295 5.22656,-1.6154 0,0.83326 -3.63671,5.44379 -6.64447,8.42368 -2.72218,2.69697 -3.88818,3.44524 -6.20017,3.97891 -3.44934,0.7962 -3.72089,0.80378 -4.14619,0.11563 z"
       id="path3412"
       inkscape:connector-curvature="0"
       transform="translate(-554.0509,584.39515)" />
    <path
       style="fill:#f2f2f2;fill-opacity:1"
       d="m 370.78075,315.94851 c 0,-0.96284 1.66149,-3.87408 2.211,-3.87408 1.13174,0 1.13865,1.21399 0.0159,2.79078 -1.19166,1.67353 -2.22688,2.17713 -2.22688,1.0833 z"
       id="path3414"
       inkscape:connector-curvature="0"
       transform="translate(-554.0509,584.39515)" />
    <path
       style="fill:#f2f2f2;fill-opacity:1"
       d="m 374.49672,307.80106 c -1.6803,-1.6803 1.43105,-4.64496 4.87481,-4.64496 2.22605,0 4.78671,1.19765 4.78671,2.23879 0,0.53763 -6.71513,2.77777 -8.32674,2.77777 -0.52975,0 -1.1304,-0.16722 -1.33478,-0.3716 z"
       id="path3416"
       inkscape:connector-curvature="0"
       transform="translate(-554.0509,584.39515)" />
    <path
       style="fill:#f2f2f2;fill-opacity:1"
       d="m 373.70708,300.55737 c -1.14956,-0.46386 -0.80681,-1.08313 1.39349,-2.51771 4.29458,-2.80004 12.75854,-5.36774 15.45933,-4.68989 1.5858,0.39801 3.07406,1.78393 3.07406,2.86266 0,0.95807 -5.61487,2.69983 -12.47506,3.86983 -5.13778,0.87625 -6.27759,0.94892 -7.45182,0.47511 z"
       id="path3418"
       inkscape:connector-curvature="0"
       transform="translate(-554.0509,584.39515)" />
    <path
       style="fill:#f2f2f2;fill-opacity:1"
       d="m 374.25987,293.08284 c -3.7912,-1.49529 -8.14033,-5.73772 -9.96269,-9.71826 -0.77852,-1.70053 -1.6733,-4.90358 -1.98838,-7.11789 -0.75015,-5.27178 -0.20267,-17.11472 0.97203,-21.02658 1.33331,-4.4401 4.40374,-9.18529 8.87723,-13.71932 4.16632,-4.22271 7.80605,-6.40677 12.87874,-7.72804 8.76245,-2.28232 20.09395,4.86115 25.62165,16.15211 6.37415,13.01992 4.20243,26.65994 -5.47154,34.36534 -5.40673,4.3065 -17.29512,8.92584 -24.82353,9.6454 -2.43017,0.23227 -3.85844,0.0327 -6.10351,-0.85276 l 0,0 z"
       id="path3420"
       inkscape:connector-curvature="0"
       transform="translate(-554.0509,584.39515)" />
  </g>
</svg>
